<?xml version="1.0" encoding="utf-8"?>
<!-- Svg Vector Icons : http://www.onlinewebfonts.com/icon -->
<!DOCTYPE svg PUBLIC "-//W3C//DTD SVG 1.1//EN" "http://www.w3.org/Graphics/SVG/1.1/DTD/svg11.dtd">
<svg version="1.1" xmlns="http://www.w3.org/2000/svg" xmlns:xlink="http://www.w3.org/1999/xlink" x="0px" y="0px" viewBox="0 0 1000 1000" enable-background="new 0 0 1000 1000" xml:space="preserve">
  <metadata>
    Svg Vector Icons : http://www.onlinewebfonts.com/icon
  </metadata>
  <g>
    <g transform="translate(0.000000,511.000000) scale(0.100000,-0.100000)">
      <path
        fill="#ffffff"
        d="M2404.3,4970.2c-41.9-20.9-92.1-75.4-119.3-127.7c-44-83.7-48.1-117.2-48.1-418.7v-330.7l-234.5-8.4c-205.1-6.3-251.2-14.6-343.3-62.8c-125.6-64.9-228.2-175.8-286.8-307.7c-37.7-81.6-44-152.8-52.3-466.8l-8.4-370.5l236.6-6.3l236.5-6.3l370.5-3412.1c452.2-4157.4,404-3761.7,468.9-3895.7c69.1-142.4,215.6-272.1,351.7-311.9c159.1-46.1,3889.4-46.1,4048.5,0c136.1,39.8,282.6,169.6,353.8,314c52.3,110.9,69.1,251.2,445.9,3709.4l391.4,3596.4l236.6,6.3l236.5,6.3l-8.4,370.5c-8.4,314-14.7,385.2-52.3,466.8c-62.8,140.3-169.6,249.1-309.8,316.1c-113,52.3-148.6,58.6-339.1,58.6h-215.6v330.7c0,305.6-4.2,339.1-48.1,422.9c-27.2,52.3-77.5,106.8-119.3,127.7c-69.1,37.7-177.9,39.8-2595.7,39.8S2473.3,5007.9,2404.3,4970.2z M7449.2,4392.5v-303.5H5000H2550.8v303.5V4696H5000h2449.2V4392.5z M8215.4,3741.4c123.5-90,144.4-142.4,150.7-366.3l8.4-207.2H5002.1H1629.7v177.9c0,259.6,71.2,391.5,234.5,429.1c37.7,10.5,1469.5,14.6,3181.9,14.6C8154.7,3785.4,8158.9,3785.4,8215.4,3741.4z M7899.3,2786.9c-14.7-108.8-94.2-795.5-94.2-816.4c0-10.5-1264.4-16.7-2811.4-16.7H2180.3l-35.6,383.1c-20.9,209.3-41.9,416.6-48.2,460.5l-12.5,77.5h2913.9h2913.9L7899.3,2786.9z M7761.1,1583.2c0-33.5-87.9-854.1-192.6-1827.5l-192.6-1768.9H5000H2624.1l-25.1,230.3c-14.6,127.7-106.7,944.1-205.1,1817c-98.4,875-177.9,1593-177.9,1597.2s1247.6,8.4,2773.7,8.4h2773.7L7761.1,1583.2z M7336.2-2415.1c-6.3-43.9-54.4-479.4-108.8-967.1c-100.5-954.6-104.7-973.4-230.3-1050.8c-62.8-37.7-125.6-39.8-1999.2-39.8c-1881.9,0-1936.3,2.1-2001.2,41.9c-37.7,20.9-81.6,67-98.4,100.5c-20.9,39.8-64.9,368.4-127.7,948.3c-52.3,487.8-100.5,923.2-106.8,967.1l-12.6,77.5H5000h2348.7L7336.2-2415.1z"/></g>
  </g>
</svg>
